<?xml version="1.0" encoding="UTF-8" standalone="no"?>
<!-- Created with Inkscape (http://www.inkscape.org/) -->

<svg
   xmlns:dc="http://purl.org/dc/elements/1.1/"
   xmlns:cc="http://creativecommons.org/ns#"
   xmlns:rdf="http://www.w3.org/1999/02/22-rdf-syntax-ns#"
   xmlns:svg="http://www.w3.org/2000/svg"
   xmlns="http://www.w3.org/2000/svg"
   xmlns:sodipodi="http://sodipodi.sourceforge.net/DTD/sodipodi-0.dtd"
   xmlns:inkscape="http://www.inkscape.org/namespaces/inkscape"
   width="64px"
   height="64px"
   id="svg3007"
   version="1.1"
   inkscape:version="0.48.2 r9819"
   sodipodi:docname="New document 2">
  <defs
     id="defs3009" />
  <sodipodi:namedview
     id="base"
     pagecolor="#ffffff"
     bordercolor="#666666"
     borderopacity="1.0"
     inkscape:pageopacity="0.0"
     inkscape:pageshadow="2"
     inkscape:zoom="1"
     inkscape:cx="-203.02607"
     inkscape:cy="118.44875"
     inkscape:current-layer="layer1"
     showgrid="true"
     inkscape:document-units="px"
     inkscape:grid-bbox="true"
     inkscape:snap-grids="true"
     showguides="false"
     inkscape:window-width="1920"
     inkscape:window-height="1137"
     inkscape:window-x="-8"
     inkscape:window-y="-8"
     inkscape:window-maximized="1">
    <inkscape:grid
       type="xygrid"
       id="grid3021" />
  </sodipodi:namedview>
  <metadata
     id="metadata3012">
    <rdf:RDF>
      <cc:Work
         rdf:about="">
        <dc:format>image/svg+xml</dc:format>
        <dc:type
           rdf:resource="http://purl.org/dc/dcmitype/StillImage" />
        <dc:title></dc:title>
      </cc:Work>
    </rdf:RDF>
  </metadata>
  <g
     id="layer1"
     inkscape:label="Layer 1"
     inkscape:groupmode="layer">
    <path
       style="fill:none;stroke:#000000;stroke-width:1px;stroke-linecap:butt;stroke-linejoin:miter;stroke-opacity:1"
       d="M 59.625,27 C 59.58333,26.95833 59.52635,26.9277 59.5,26.875 59.44107,26.757149 59.650395,26.56295 59.375,26.5 59.34231,26.45097 59.27635,26.4277 59.25,26.375 c -0.01863,-0.03727 0.01863,-0.08773 0,-0.125 -0.075,-0.15 -0.3,-0.225 -0.375,-0.375 -0.01863,-0.03727 0.01863,-0.08773 0,-0.125 -0.02635,-0.0527 -0.08333,-0.08333 -0.125,-0.125 0,-0.04167 0.01863,-0.08773 0,-0.125 -0.02635,-0.0527 -0.09865,-0.0723 -0.125,-0.125 -0.01863,-0.03727 0.01863,-0.08773 0,-0.125 C 58.59865,25.1973 58.53269,25.17403 58.5,25.125 58.44832,25.04748 58.44088,24.94088 58.375,24.875 58.30912,24.80912 58.19088,24.81588 58.125,24.75 58.05912,24.68412 58.05168,24.57752 58,24.5 c -0.06537,-0.09806 -0.1973,-0.144591 -0.25,-0.25 -0.01863,-0.03727 0.02946,-0.09554 0,-0.125 -0.02946,-0.02946 -0.09554,0.02946 -0.125,0 -0.02946,-0.02946 0.01863,-0.08773 0,-0.125 -0.02635,-0.0527 -0.09865,-0.0723 -0.125,-0.125 -0.01863,-0.03727 0.02946,-0.09554 0,-0.125 -0.02946,-0.02946 -0.09554,0.02946 -0.125,0 C 57.30912,23.68412 57.30168,23.57752 57.25,23.5 57.21731,23.45097 57.16667,23.41667 57.125,23.375 56.985617,23.235617 56.58234,22.873505 56.5,22.75 c -0.02311,-0.03467 0.01863,-0.08773 0,-0.125 -0.08392,-0.16784 -0.16608,-0.08216 -0.25,-0.25 -0.01863,-0.03727 0.01863,-0.08773 0,-0.125 C 56.22365,22.1973 56.16667,22.16667 56.125,22.125 56.08333,22.08333 56.04903,22.03269 56,22 55.92248,21.94832 55.81588,21.94088 55.75,21.875 55.59775,21.722752 55.69145,21.59572 55.5,21.5 c -0.03727,-0.01863 -0.09554,0.02946 -0.125,0 -0.02946,-0.02946 0.01863,-0.08773 0,-0.125 C 55.3584,21.34181 55.03319,21.01659 55,21 c -0.03727,-0.01863 -0.08773,0.01863 -0.125,0 -0.105409,-0.0527 -0.144591,-0.1973 -0.25,-0.25 -0.03727,-0.01863 -0.08773,0.01863 -0.125,0 -0.16784,-0.08392 -0.08216,-0.16608 -0.25,-0.25 -0.03727,-0.01863 -0.08547,0.01318 -0.125,0 -0.08839,-0.02946 -0.16161,-0.09554 -0.25,-0.125 -0.03953,-0.01318 -0.08773,0.01863 -0.125,0 -0.05271,-0.02635 -0.0691,-0.10637 -0.125,-0.125 -0.07906,-0.02635 -0.17094,0.02635 -0.25,0 -0.390165,-0.130055 0.04167,-0.08333 -0.125,-0.25 -0.02946,-0.02946 -0.08547,0.01318 -0.125,0 -0.08839,-0.02946 -0.16667,-0.08333 -0.25,-0.125 -0.08333,0 -0.17094,0.02635 -0.25,0 -0.111804,-0.03727 -0.138197,-0.21273 -0.25,-0.25 -0.07906,-0.02635 -0.16916,0.02021 -0.25,0 -0.09039,-0.0226 -0.16161,-0.09554 -0.25,-0.125 -0.03953,-0.01318 -0.08547,0.01318 -0.125,0 -0.08839,-0.02946 -0.15961,-0.1024 -0.25,-0.125 -0.08084,-0.02021 -0.17094,0.02635 -0.25,0 -0.0559,-0.01863 -0.0691,-0.10637 -0.125,-0.125 -0.07906,-0.02635 -0.16916,0.02021 -0.25,0 -0.09039,-0.0226 -0.16161,-0.09554 -0.25,-0.125 -0.03953,-0.01318 -0.08773,0.01863 -0.125,0 -0.05271,-0.02635 -0.0723,-0.09865 -0.125,-0.125 -0.07856,-0.03928 -0.42144,0.03928 -0.5,0 -0.05271,-0.02635 -0.0691,-0.10637 -0.125,-0.125 -0.1875,-0.0625 -0.4375,0.0625 -0.625,0 C 49.0691,18.85637 49.0559,18.76863 49,18.75 c -0.1875,-0.0625 -0.4375,0.0625 -0.625,0 -0.0559,-0.01863 -0.0723,-0.09865 -0.125,-0.125 -0.03727,-0.01863 -0.08333,0 -0.125,0 -0.04167,0 -0.08333,0 -0.125,0 -0.144691,0 -0.513402,0.0279 -0.625,0 -0.09039,-0.0226 -0.15961,-0.1024 -0.25,-0.125 -0.217031,-0.05426 -0.532969,0.05426 -0.75,0 -0.09039,-0.0226 -0.16161,-0.09554 -0.25,-0.125 -0.08084,-0.02695 -0.488512,0 -0.625,0 -0.416667,0 -0.833333,0 -1.25,0 -1.083333,0 -2.166667,0 -3.25,0 -1.208333,0 -2.416667,0 -3.625,0 -0.458333,0 -0.916667,0 -1.375,0 -0.04526,0 -0.66242,-0.0219 -0.75,0 -0.09039,0.0226 -0.16161,0.09554 -0.25,0.125 -0.07453,0.02484 -0.628892,0 -0.75,0 -0.04167,0 -0.08333,0 -0.125,0 -0.04167,0 -0.08773,-0.01863 -0.125,0 -0.05271,0.02635 -0.07229,0.09865 -0.125,0.125 -0.03727,0.01863 -0.08333,0 -0.125,0 -0.04167,0 -0.08333,0 -0.125,0 -0.208333,0 -0.416667,0 -0.625,0 -0.402369,0 0.213388,-0.02946 -0.25,0.125 -0.132827,0.04428 -0.367174,-0.04427 -0.5,0 -0.08839,0.02946 -0.16161,0.09554 -0.25,0.125 -0.0879,0.0293 -0.59074,-0.03426 -0.625,0 -0.02946,0.02946 0.02946,0.09554 0,0.125 -0.02946,0.02946 -0.08333,0 -0.125,0 -0.08694,0 -0.5798,-0.0226 -0.625,0 -0.05271,0.02635 -0.07229,0.09865 -0.125,0.125 -0.03727,0.01863 -0.08333,0 -0.125,0 -0.08333,0 -0.17094,-0.02635 -0.25,0 -0.0559,0.01863 -0.07229,0.09865 -0.125,0.125 -0.07856,0.03928 -0.42144,-0.03928 -0.5,0 -0.05271,0.02635 -0.07229,0.09865 -0.125,0.125 -0.0812,0.0406 -0.54571,-0.03965 -0.625,0 -0.05271,0.02635 -0.08333,0.08333 -0.125,0.125 -0.04167,0 -0.08773,-0.01863 -0.125,0 -0.05271,0.02635 -0.0691,0.10637 -0.125,0.125 -0.07906,0.02635 -0.16667,0 -0.25,0 -0.04167,0 -0.08773,-0.01863 -0.125,0 -0.05271,0.02635 -0.07229,0.09865 -0.125,0.125 -0.03727,0.01863 -0.08773,-0.01863 -0.125,0 -0.05271,0.02635 -0.07229,0.09865 -0.125,0.125 -0.06713,0.03357 -0.18287,-0.03357 -0.25,0 -0.0527,0.02635 -0.0723,0.09865 -0.125,0.125 -0.07454,0.03727 -0.17546,-0.03727 -0.25,0 -0.0527,0.02635 -0.0723,0.09865 -0.125,0.125 -0.07454,0.03727 -0.17546,-0.03727 -0.25,0 -0.0527,0.02635 -0.0723,0.09865 -0.125,0.125 -0.07454,0.03727 -0.17546,-0.03727 -0.25,0 -0.0527,0.02635 -0.0723,0.09865 -0.125,0.125 -0.07454,0.03727 -0.19108,-0.05892 -0.25,0 -0.02946,0.02946 0.02946,0.09554 0,0.125 -0.05893,0.05893 -0.17546,-0.03727 -0.25,0 -0.16667,0.08333 -0.08333,0.16667 -0.25,0.25 -0.367851,0.18393 0.164573,-0.289573 -0.25,0.125 -0.07454,0.03727 -0.19108,-0.05892 -0.25,0 -0.02946,0.02946 0.02946,0.09554 0,0.125 -0.02946,0.02946 -0.08773,-0.01863 -0.125,0 -0.0527,0.02635 -0.0723,0.09865 -0.125,0.125 -0.07454,0.03727 -0.19108,-0.05892 -0.25,0 -0.02946,0.02946 0.02946,0.09554 0,0.125 -0.02946,0.02946 -0.09554,-0.02946 -0.125,0 -0.02946,0.02946 0.02946,0.09554 0,0.125 -0.02946,0.02946 -0.08773,-0.01863 -0.125,0 -0.0527,0.02635 -0.0723,0.09865 -0.125,0.125 -0.367851,0.18393 0.164573,-0.289573 -0.25,0.125 -0.03727,0.01863 -0.08773,-0.01863 -0.125,0 -0.3,0.15 0.05,0.1 -0.25,0.25 -0.03727,0.01863 -0.08773,-0.01863 -0.125,0 -0.0527,0.02635 -0.08333,0.08333 -0.125,0.125 -0.04167,0 -0.08773,-0.01863 -0.125,0 -0.0527,0.02635 -0.0723,0.09865 -0.125,0.125 -0.03727,0.01863 -0.09554,-0.02946 -0.125,0 -0.02946,0.02946 0.02946,0.09554 0,0.125 -0.02946,0.02946 -0.08773,-0.01863 -0.125,0 -0.0527,0.02635 -0.0723,0.09865 -0.125,0.125 -0.03727,0.01863 -0.09554,-0.02946 -0.125,0 -0.02946,0.02946 0.02946,0.09554 0,0.125 -0.02946,0.02946 -0.08773,-0.01863 -0.125,0 -0.0527,0.02635 -0.0723,0.09865 -0.125,0.125 -0.03727,0.01863 -0.09554,-0.02946 -0.125,0 -0.02946,0.02946 0.02946,0.09554 0,0.125 -0.02946,0.02946 -0.08773,-0.01863 -0.125,0 -0.15,0.075 -0.225,0.3 -0.375,0.375 -0.03727,0.01863 -0.09554,-0.02946 -0.125,0 -0.25863,0.2586 0.39522,-0.01011 -0.125,0.25 -0.03727,0.01863 -0.08773,-0.01863 -0.125,0 -0.0527,0.02635 -0.0723,0.09865 -0.125,0.125 -0.03727,0.01863 -0.08773,-0.01863 -0.125,0 -0.105409,0.0527 -0.144591,0.1973 -0.25,0.25 -0.07454,0.03727 -0.19108,-0.05892 -0.25,0 -0.02946,0.02946 0.02946,0.09554 0,0.125 -0.02946,0.02946 -0.09554,-0.02946 -0.125,0 -0.02946,0.02946 0.01863,0.08773 0,0.125 -0.02635,0.0527 -0.08333,0.08333 -0.125,0.125 -0.04167,0.04167 -0.0723,0.09865 -0.125,0.125 -0.367851,0.18393 0.164573,-0.289573 -0.25,0.125 -0.03727,0.01863 -0.09554,-0.02946 -0.125,0 -0.02946,0.02946 0.01863,0.08773 0,0.125 -0.01659,0.03319 -0.34181,0.35841 -0.375,0.375 -0.03727,0.01863 -0.09554,-0.02946 -0.125,0 -0.02946,0.02946 0.02946,0.09554 0,0.125 -0.02946,0.02946 -0.09554,-0.02946 -0.125,0 -0.25863,0.2586 0.39522,-0.01011 -0.125,0.25 -0.03727,0.01863 -0.08333,0 -0.125,0 0,0.04167 0.02946,0.09554 0,0.125 -0.02946,0.02946 -0.09554,-0.02946 -0.125,0 -0.25863,0.2586 0.39522,-0.01011 -0.125,0.25 -0.03727,0.01863 -0.09554,-0.02946 -0.125,0 -0.02946,0.02946 0.02946,0.09554 0,0.125 -0.02946,0.02946 -0.09554,-0.02946 -0.125,0 -0.02946,0.02946 0.01863,0.08773 0,0.125 -0.0527,0.105409 -0.1973,0.144591 -0.25,0.25 -0.02478,0.04956 0.02555,0.34945 0,0.375 -0.02946,0.02946 -0.09554,-0.02946 -0.125,0 -0.16667,0.16667 0.208333,0.125 -0.125,0.125 -0.02946,0.02946 0.02946,0.09554 0,0.125 -0.02946,0.02946 -0.08773,-0.01863 -0.125,0 -0.0527,0.02635 -0.0723,0.09865 -0.125,0.125 -0.03727,0.01863 -0.09554,-0.02946 -0.125,0 -0.02946,0.02946 0.02946,0.09554 0,0.125 -0.02946,0.02946 -0.09554,-0.02946 -0.125,0 -0.02946,0.02946 0.01863,0.08773 0,0.125 -0.02635,0.0527 -0.09865,0.0723 -0.125,0.125 -0.01863,0.03727 0.02946,0.09554 0,0.125 -0.02946,0.02946 -0.08333,0 -0.125,0 0,0.04167 0.02946,0.09554 0,0.125 -0.05893,0.05893 -0.19107,-0.05892 -0.25,0 -0.02946,0.02946 0.02946,0.09554 0,0.125 -0.02946,0.02946 -0.09554,-0.02946 -0.125,0 -0.02946,0.02946 0.02946,0.09554 0,0.125 -0.02946,0.02946 -0.09554,-0.02946 -0.125,0 -0.02946,0.02946 0.01863,0.08773 0,0.125 -0.02635,0.0527 -0.08333,0.08333 -0.125,0.125 -0.04167,0.04167 -0.0723,0.09865 -0.125,0.125 -0.03727,0.01863 -0.09554,-0.02946 -0.125,0 -0.02946,0.02946 0.02946,0.09554 0,0.125 -0.02946,0.02946 -0.08333,0 -0.125,0 -0.125,0.25 -0.25,0.5 -0.375,0.75 l -5,-10 -5,20 20,5 -5,-10 c 0.166667,-0.291667 0.333333,-0.583333 0.5,-0.875 0.04167,0 0.09554,0.02946 0.125,0 0.02946,-0.02946 -0.02946,-0.09554 0,-0.125 0.02946,-0.02946 0.09554,0.02946 0.125,0 0.02946,-0.02946 -0.02946,-0.09554 0,-0.125 0.258629,-0.258629 -0.01011,0.39522 0.25,-0.125 0.08621,-0.17242 -0.151382,-0.111809 0.125,-0.25 0.03727,-0.01863 0.09554,0.02946 0.125,0 0.02946,-0.02946 -0.02946,-0.09554 0,-0.125 0.258629,-0.258629 -0.01011,0.39522 0.25,-0.125 0.01863,-0.03727 -0.02946,-0.09554 0,-0.125 0.02946,-0.02946 0.08773,0.01863 0.125,0 0.0527,-0.02635 0.0723,-0.09865 0.125,-0.125 0.03727,-0.01863 0.08773,0.01863 0.125,0 0.0527,-0.02635 0.0723,-0.09865 0.125,-0.125 0.03727,-0.01863 0.08333,0 0.125,0 0.04167,-0.04167 0.0723,-0.09865 0.125,-0.125 0.07454,-0.03727 0.191074,0.05893 0.25,0 0.02946,-0.02946 -0.02946,-0.09554 0,-0.125 0.02946,-0.02946 0.08773,0.01863 0.125,0 0.414573,-0.414573 -0.117851,0.05893 0.25,-0.125 0.414573,-0.414573 -0.117851,0.05893 0.25,-0.125 0.0527,-0.02635 0.0723,-0.09865 0.125,-0.125 0.03727,-0.01863 0.09554,0.02946 0.125,0 0.02946,-0.02946 -0.02946,-0.09554 0,-0.125 0.02946,-0.02946 0.08773,0.01863 0.125,0 0.0527,-0.02635 0.0723,-0.09865 0.125,-0.125 0.03727,-0.01863 0.09554,0.02946 0.125,0 0.02946,-0.02946 -0.02946,-0.09554 0,-0.125 0.02946,-0.02946 0.08773,0.01863 0.125,0 0.105409,-0.0527 0.144591,-0.197295 0.25,-0.25 0.03727,-0.01863 0.08333,0 0.125,0 0.04167,-0.04167 0.0723,-0.09865 0.125,-0.125 0.03727,-0.01863 0.09554,0.02946 0.125,0 0.02946,-0.02946 -0.02946,-0.09554 0,-0.125 0.02946,-0.02946 0.08773,0.01863 0.125,0 0.0527,-0.02635 0.0723,-0.09865 0.125,-0.125 0.03727,-0.01863 0.09554,0.02946 0.125,0 0.02946,-0.02946 -0.02946,-0.09554 0,-0.125 0.02946,-0.02946 0.08773,0.01863 0.125,0 0.414573,-0.414573 -0.117851,0.05893 0.25,-0.125 0.105409,-0.0527 0.144591,-0.197295 0.25,-0.25 0.03727,-0.01863 0.09554,0.02946 0.125,0 0.258629,-0.258629 -0.39522,0.01011 0.125,-0.25 0.03727,-0.01863 0.08773,0.01863 0.125,0 0.284518,-0.284518 -0.02589,-0.03304 0.25,-0.125 0.08333,-0.04167 0.166667,-0.08333 0.25,-0.125 0,-0.04167 -0.02946,-0.09554 0,-0.125 0.02946,-0.02946 0.08773,0.01863 0.125,0 0.105409,-0.0527 0.144591,-0.197295 0.25,-0.25 0.03727,-0.01863 0.08773,0.01863 0.125,0 0.0527,-0.02635 0.0723,-0.09865 0.125,-0.125 0.07454,-0.03727 0.175464,0.03727 0.25,0 0.05271,-0.02635 0.07229,-0.09865 0.125,-0.125 0.03727,-0.01863 0.09554,0.02946 0.125,0 0.02946,-0.02946 -0.02946,-0.09554 0,-0.125 0.02946,-0.02946 0.08773,0.01863 0.125,0 0.05271,-0.02635 0.07229,-0.09865 0.125,-0.125 0.06644,-0.03322 0.183564,0.03322 0.25,0 0.05271,-0.02635 0.07229,-0.09865 0.125,-0.125 0.03727,-0.01863 0.08773,0.01863 0.125,0 0.05271,-0.02635 0.07229,-0.09865 0.125,-0.125 0.06644,-0.03322 0.183564,0.03322 0.25,0 0.05271,-0.02635 0.07229,-0.09865 0.125,-0.125 0.03727,-0.01863 0.08547,0.01318 0.125,0 0.08839,-0.02946 0.159612,-0.102403 0.25,-0.125 0.08084,-0.02021 0.169155,0.02021 0.25,0 0.09039,-0.0226 0.163494,-0.0904 0.25,-0.125 0.122337,-0.04894 0.257149,-0.06607 0.375,-0.125 0.134371,-0.06718 0.240629,-0.182814 0.375,-0.25 0.235702,-0.117851 0.514298,-0.132149 0.75,-0.25 0.134371,-0.06718 0.240629,-0.182814 0.375,-0.25 0.235702,-0.117851 0.505325,-0.15213 0.75,-0.25 0.255488,-0.102195 0.503785,-0.251892 0.75,-0.375 0.08333,-0.04167 0.161612,-0.09554 0.25,-0.125 0.03953,-0.01318 0.08773,0.01863 0.125,0 0.05271,-0.02635 0.07229,-0.09865 0.125,-0.125 0.07453,-0.03727 0.175464,0.03727 0.25,0 0.05271,-0.02635 0.07229,-0.09865 0.125,-0.125 0.03232,-0.01616 0.6614,0 0.75,0 0.06536,0 0.467132,0.01643 0.5,0 0.05271,-0.02635 0.07229,-0.09865 0.125,-0.125 0.03804,-0.01902 0.318705,0 0.375,0 0.291667,0 0.583333,0 0.875,0 0.05629,0 0.336958,0.01902 0.375,0 0.05271,-0.02635 0.07229,-0.09865 0.125,-0.125 0.07176,-0.03588 0.518598,0.0266 0.625,0 0.09039,-0.0226 0.166667,-0.08333 0.25,-0.125 0.125,0 0.252427,0.02452 0.375,0 0.09136,-0.01827 0.159612,-0.102403 0.25,-0.125 0.08084,-0.02021 0.169155,0.02021 0.25,0 0.09039,-0.0226 0.159612,-0.102403 0.25,-0.125 0.08084,-0.02021 0.168285,0.01634 0.25,0 0.129203,-0.02584 0.245797,-0.09916 0.375,-0.125 0.08172,-0.01634 0.169155,0.02021 0.25,0 0.09039,-0.0226 0.159612,-0.102403 0.25,-0.125 0.16169,-0.04042 0.350929,0.07454 0.5,0 0.03727,-0.01863 -0.02946,-0.09554 0,-0.125 0.02946,-0.02946 0.08333,0 0.125,0 0.04167,0 0.08333,0 0.125,0 0.121108,0 0.675466,-0.02484 0.75,0 0.08839,0.02946 0.161612,0.09554 0.25,0.125 0.03953,0.01318 0.08333,0 0.125,0 0.132228,0 0.810603,-0.02146 0.875,0 0.0559,0.01863 0.0691,0.106366 0.125,0.125 0.06891,0.02297 0.643919,0 0.75,0 0.583333,0 1.166667,0 1.75,0 0.04167,0 0.08333,0 0.125,0 0.04167,0 0.08773,-0.01863 0.125,0 0.0527,0.02635 0.07229,0.09865 0.125,0.125 0.03331,0.01666 0.693451,0 0.75,0 0.708333,0 1.416667,0 2.125,0 0.25,0 0.5,0 0.75,0 0.08333,0 0.170943,-0.02635 0.25,0 0.08839,0.02946 0.159612,0.102403 0.25,0.125 0.110154,0.02754 0.676049,-0.03698 0.75,0 0.0527,0.02635 0.07229,0.09865 0.125,0.125 0.08634,0.04317 0.581122,-0.04388 0.625,0 0.02946,0.02946 -0.02946,0.09554 0,0.125 0.02555,0.02556 0.325438,-0.02478 0.375,0 0.0527,0.02635 0.07229,0.09865 0.125,0.125 0.08284,0.04142 0.395234,-0.03492 0.5,0 0.08839,0.02946 0.161612,0.09554 0.25,0.125 0.08598,0.02866 0.301247,-0.03688 0.375,0 0.0527,0.02635 0.0691,0.106366 0.125,0.125 0.15,0.05 0.35,-0.05 0.5,0 0.0559,0.01863 0.0691,0.106366 0.125,0.125 0.118585,0.03953 0.256414,-0.03953 0.375,0 0.08839,0.02946 0.161611,0.09554 0.25,0.125 0.100612,0.03354 0.420122,-0.03994 0.5,0 0.308925,0.154463 -0.04315,0.125 0.25,0.125 0.88659,0 0.07322,-0.08839 0.5,0.125 0.03727,0.01863 0.08773,-0.01863 0.125,0 0.0527,0.02635 0.07229,0.09865 0.125,0.125 0.1,0.05 0.275,-0.05 0.375,0 0.0527,0.02635 0.07229,0.09865 0.125,0.125 0.06644,0.03322 0.183564,-0.03322 0.25,0 0.0527,0.02635 0.07229,0.09865 0.125,0.125 0.07453,0.03727 0.191074,-0.05892 0.25,0 0.02946,0.02946 -0.02946,0.09554 0,0.125 0.0625,0.0625 0.3125,-0.0625 0.375,0 0.02946,0.02946 -0.02946,0.09554 0,0.125 0.0625,0.0625 0.3125,-0.0625 0.375,0 0.02946,0.02946 -0.02946,0.09554 0,0.125 0.02946,0.02946 0.08333,0 0.125,0 0.08333,0 0.169873,0.02289 0.25,0 0.253384,-0.0724 0.5,-0.333333 0.75,-0.25 0.158114,0.0527 -0.04042,0.33831 0,0.5 0.0083,0.03333 0.345833,-0.02917 0.375,0 0.02946,0.02946 0,0.08333 0,0.125 0,0.356195 0.09176,0.219412 -0.375,0.375"
       id="path3025"
       inkscape:connector-curvature="0"
       sodipodi:nodetypes="ccccc" />
    <path
       style="fill:#ff0000;stroke:#ffffff;stroke-width:0.12500000000000000"
       d="M 15.181648,40.801012 C 7.1717544,38.785461 6.3729115,38.56166 6.4104702,38.343715 6.4719774,37.986802 10.677211,21.134769 10.759251,20.916431 c 0.04121,-0.109683 1.052617,1.773156 2.436993,4.536731 1.301596,2.598328 2.410065,4.697332 2.463262,4.664454 0.0532,-0.03288 0.230183,-0.34472 0.3933,-0.692982 0.163117,-0.348261 0.371336,-0.633203 0.462709,-0.633203 0.09137,0 0.166133,-0.08174 0.166133,-0.181635 0,-0.0999 0.20204,-0.27751 0.448979,-0.39469 0.246938,-0.11718 0.482853,-0.302631 0.524256,-0.412115 0.144033,-0.380877 0.416445,-0.540661 1.056375,-0.619618 l 0.64385,-0.07944 -0.39923,-0.33568 c -0.443446,-0.372858 -0.48961,-0.47682 -0.21173,-0.47682 0.103125,0 0.1875,-0.0548 0.1875,-0.12179 0,-0.06698 0.164394,-0.206801 0.365318,-0.310703 0.200925,-0.103902 0.550961,-0.358472 0.777858,-0.56571 0.331157,-0.302466 0.36673,-0.376797 0.180324,-0.376797 -0.19775,0 -0.185045,-0.0371 0.08561,-0.25 0.174802,-0.1375 0.379264,-0.25 0.454357,-0.25 0.07509,0 0.136534,-0.05544 0.136534,-0.1232 0,-0.06776 0.344299,-0.297002 0.765108,-0.509426 0.420808,-0.212424 0.901491,-0.522608 1.068181,-0.689299 0.166691,-0.166691 0.356767,-0.303075 0.422392,-0.303075 0.06563,0 0.119319,-0.05091 0.119319,-0.113122 0,-0.149428 1.051003,-0.761878 1.307431,-0.761878 0.110229,0 0.232793,-0.08437 0.272365,-0.1875 0.03957,-0.103125 0.15266,-0.1875 0.251304,-0.1875 0.09865,0 0.300108,-0.1125 0.447696,-0.25 0.14759,-0.1375 0.393675,-0.25 0.546858,-0.25 0.153182,0 0.297262,-0.04592 0.32018,-0.102045 0.07644,-0.187219 2.650987,-0.991133 3.854166,-1.203484 0.653125,-0.115271 1.440625,-0.263715 1.75,-0.329875 1.720551,-0.367943 3.832579,-0.487455 8.632947,-0.48851 4.882302,-0.0011 6.082483,0.07019 8.554553,0.507945 1.072742,0.189961 2.713194,0.704116 3.338885,1.046482 0.294864,0.161344 0.67674,0.333621 0.848615,0.382838 0.545369,0.15617 1.374544,0.739943 1.374776,0.967899 1.24e-4,0.120313 0.07522,0.21875 0.16689,0.21875 0.293349,0 1.915129,1.846834 2.032525,2.314579 0.04285,0.170731 0.14561,0.310421 0.228353,0.310421 0.165438,0 0.608647,0.548418 1.034331,1.27986 l 0.274375,0.471452 -0.336875,-0.07801 c -0.185281,-0.0429 -0.730625,-0.186852 -1.211875,-0.319886 -0.48125,-0.133033 -1.128125,-0.289981 -1.4375,-0.348772 -1.855386,-0.352585 -2.702193,-0.541327 -2.8125,-0.626871 -0.202426,-0.156983 -2.811496,-0.36378 -5.5,-0.435935 -1.375,-0.0369 -3.355458,-0.134054 -4.401018,-0.215892 -1.457191,-0.114057 -1.967901,-0.114498 -2.1875,-0.0019 -0.566672,0.29058 -2.631637,0.653439 -4.503559,0.791374 -1.802985,0.132855 -1.962924,0.166403 -2.907923,0.609943 -1.697395,0.79668 -3.32495,1.457811 -4.5,1.82795 -0.61875,0.194905 -1.19933,0.425766 -1.290179,0.513024 -0.09085,0.08726 -0.21741,0.165682 -0.28125,0.174276 -0.06384,0.0086 -0.177008,0.02266 -0.251487,0.03125 -0.07448,0.0086 -0.285418,0.163546 -0.46875,0.344337 -0.183334,0.180792 -0.630784,0.478136 -0.994335,0.660764 -0.36355,0.182628 -0.781506,0.470644 -0.928791,0.640037 -0.147285,0.169393 -0.370148,0.307987 -0.49525,0.307987 -0.125102,0 -0.227458,0.05625 -0.227458,0.125 0,0.06875 -0.08437,0.125 -0.1875,0.125 -0.103125,0 -0.1875,0.07836 -0.1875,0.174127 0,0.18066 -0.25919,0.325873 -0.581652,0.325873 -0.102413,0 -0.273343,0.08714 -0.379843,0.193639 -0.106501,0.106501 -0.355609,0.226032 -0.553572,0.265625 -0.197963,0.03959 -0.359933,0.139525 -0.359933,0.222072 0,0.169897 -0.517212,0.690369 -0.695556,0.699939 -0.124469,0.0067 -0.804444,1.360825 -0.804444,1.602021 0,0.0787 0.984375,2.111218 2.1875,4.516704 1.203125,2.405486 2.1875,4.402049 2.1875,4.436805 0,0.138178 -0.75061,-0.0385 -9.25,-2.177224 z"
       id="path3027"
       inkscape:connector-curvature="0" />
  </g>
</svg>
