<?xml version="1.0" encoding="UTF-8" standalone="no"?>
<!-- Created with Inkscape (http://www.inkscape.org/) -->

<svg
   xmlns:dc="http://purl.org/dc/elements/1.1/"
   xmlns:cc="http://creativecommons.org/ns#"
   xmlns:rdf="http://www.w3.org/1999/02/22-rdf-syntax-ns#"
   xmlns:svg="http://www.w3.org/2000/svg"
   xmlns="http://www.w3.org/2000/svg"
   xmlns:sodipodi="http://sodipodi.sourceforge.net/DTD/sodipodi-0.dtd"
   xmlns:inkscape="http://www.inkscape.org/namespaces/inkscape"
   width="64px"
   height="64px"
   id="svg3029"
   version="1.1"
   inkscape:version="0.48.2 r9819"
   sodipodi:docname="redo2.svg"
   inkscape:export-filename="C:\Users\Frédéric\Google Drive XCedim\R&amp;D\Android\SudokuExperimentProject\SudokuExperiment\src\main\res\drawable-hdpi\redo2.png"
   inkscape:export-xdpi="90"
   inkscape:export-ydpi="90">
  <defs
     id="defs3031" />
  <sodipodi:namedview
     id="base"
     pagecolor="#ffffff"
     bordercolor="#666666"
     borderopacity="1.0"
     inkscape:pageopacity="0.0"
     inkscape:pageshadow="2"
     inkscape:zoom="1"
     inkscape:cx="61.814344"
     inkscape:cy="17.266075"
     inkscape:current-layer="layer1"
     showgrid="true"
     inkscape:document-units="px"
     inkscape:grid-bbox="true"
     showguides="false"
     inkscape:snap-global="false"
     inkscape:window-width="1920"
     inkscape:window-height="1137"
     inkscape:window-x="-8"
     inkscape:window-y="-8"
     inkscape:window-maximized="1">
    <inkscape:grid
       type="xygrid"
       id="grid3037" />
  </sodipodi:namedview>
  <metadata
     id="metadata3034">
    <rdf:RDF>
      <cc:Work
         rdf:about="">
        <dc:format>image/svg+xml</dc:format>
        <dc:type
           rdf:resource="http://purl.org/dc/dcmitype/StillImage" />
        <dc:title></dc:title>
      </cc:Work>
    </rdf:RDF>
  </metadata>
  <g
     id="layer1"
     inkscape:label="Layer 1"
     inkscape:groupmode="layer">
    <g
       id="g3047"
       transform="matrix(-1.3267888,-1.0209899,-0.93966459,1.4416186,97.590631,-4.5876976)">
      <path
         sodipodi:nodetypes="ccc"
         inkscape:connector-curvature="0"
         id="path3041"
         d="M 15,19 5,34 15,49"
         style="fill:none;stroke:#000000;stroke-width:1px;stroke-linecap:butt;stroke-linejoin:miter;stroke-opacity:1" />
      <path
         sodipodi:nodetypes="cc"
         inkscape:connector-curvature="0"
         id="path3043"
         d="m 15,19 0,10"
         style="fill:none;stroke:#000000;stroke-width:1px;stroke-linecap:butt;stroke-linejoin:miter;stroke-opacity:1" />
      <path
         sodipodi:nodetypes="cc"
         inkscape:connector-curvature="0"
         id="path3045"
         d="M 15,49 15,39"
         style="fill:none;stroke:#000000;stroke-width:1px;stroke-linecap:butt;stroke-linejoin:miter;stroke-opacity:1" />
    </g>
    <path
       style="fill:none;stroke:#000000;stroke-width:1.69473052px;stroke-linecap:butt;stroke-linejoin:miter;stroke-opacity:1"
       d="M 50.600509,21.209233 36.115801,7.7192461 C 2.1450311,-15.067363 -3.1938349,29.657461 7.2941891,58.627887 l 8.4247779,3.693686 C 9.8377601,28.765565 9.5892171,7.1336173 27.395417,23.457565 c 3.244499,3.007699 9.361197,6.264913 13.154479,12.36582"
       id="path3052"
       inkscape:connector-curvature="0"
       sodipodi:nodetypes="cccccc" />
    <path
       style="fill:#f44800;stroke:#ffffff;stroke-width:0.3081328"
       d="M 13.74787,56.170781 C 12.031851,45.745358 11.457024,39.753553 11.444549,32.161818 c -0.01268,-7.680329 0.151463,-8.974049 1.517262,-11.962865 1.798479,-3.935678 5.709815,-4.329795 10.587262,-1.066799 1.839594,1.230681 9.199931,7.139817 12.566728,10.089006 2.925617,2.56273 5.47378,5.857986 4.960849,6.415312 -0.242939,0.263964 -0.19998,0.412783 0.162832,0.564059 0.271062,0.113024 0.492116,0.370691 0.491232,0.572611 -8.88e-4,0.201916 -1.596091,2.813343 -3.544905,5.803166 -1.948814,2.989821 -3.494621,5.488932 -3.435129,5.553574 0.134246,0.145864 22.698968,-9.212061 23.053262,-9.560527 0.141171,-0.138851 0.367096,-4.564199 0.502042,-9.834101 0.134945,-5.269901 0.309574,-11.437222 0.388063,-13.705156 l 0.1427,-4.123519 -3.723769,5.72947 c -2.048072,3.151207 -3.768403,5.789911 -3.822959,5.863783 -0.257285,0.348382 -2.125806,-1.231585 -8.751388,-7.399929 C 34.679959,7.7835671 32.154771,6.0269057 26.357195,3.8431919 23.771514,2.8692704 23.262826,2.7862469 19.842121,2.7798533 16.145533,2.7729133 16.123365,2.7774133 13.891036,3.9761645 7.1319051,7.6058204 3.5950551,16.865741 3.6015301,30.915384 c 0.004,8.359819 1.005087,15.393294 3.266319,22.945313 l 1.176945,3.930733 3.0241679,1.318978 c 1.663293,0.725435 3.104094,1.318337 3.201782,1.31756 0.0977,-6.43e-4 -0.137602,-1.916514 -0.522874,-4.257187 l 0,0 z"
       id="path3024"
       inkscape:connector-curvature="0" />
  </g>
</svg>
