<?xml version="1.0" encoding="UTF-8" standalone="no"?>
<!-- Created with Inkscape (http://www.inkscape.org/) -->

<svg
   xmlns:dc="http://purl.org/dc/elements/1.1/"
   xmlns:cc="http://creativecommons.org/ns#"
   xmlns:rdf="http://www.w3.org/1999/02/22-rdf-syntax-ns#"
   xmlns:svg="http://www.w3.org/2000/svg"
   xmlns="http://www.w3.org/2000/svg"
   xmlns:sodipodi="http://sodipodi.sourceforge.net/DTD/sodipodi-0.dtd"
   xmlns:inkscape="http://www.inkscape.org/namespaces/inkscape"
   width="64px"
   height="64px"
   id="svg3029"
   version="1.1"
   inkscape:version="0.48.2 r9819"
   sodipodi:docname="undo2.svg">
  <defs
     id="defs3031" />
  <sodipodi:namedview
     id="base"
     pagecolor="#ffffff"
     bordercolor="#666666"
     borderopacity="1.0"
     inkscape:pageopacity="0.0"
     inkscape:pageshadow="2"
     inkscape:zoom="8"
     inkscape:cx="61.814344"
     inkscape:cy="18.328575"
     inkscape:current-layer="layer1"
     showgrid="true"
     inkscape:document-units="px"
     inkscape:grid-bbox="true"
     showguides="false"
     inkscape:snap-global="false"
     inkscape:window-width="1920"
     inkscape:window-height="1137"
     inkscape:window-x="-8"
     inkscape:window-y="-8"
     inkscape:window-maximized="1">
    <inkscape:grid
       type="xygrid"
       id="grid3037" />
  </sodipodi:namedview>
  <metadata
     id="metadata3034">
    <rdf:RDF>
      <cc:Work
         rdf:about="">
        <dc:format>image/svg+xml</dc:format>
        <dc:type
           rdf:resource="http://purl.org/dc/dcmitype/StillImage" />
        <dc:title />
      </cc:Work>
    </rdf:RDF>
  </metadata>
  <g
     id="layer1"
     inkscape:label="Layer 1"
     inkscape:groupmode="layer">
    <g
       id="g3047"
       transform="matrix(1.3267888,-1.0209899,0.93966459,1.4416186,-35.28248,-4.5876976)">
      <path
         sodipodi:nodetypes="ccc"
         inkscape:connector-curvature="0"
         id="path3041"
         d="M 15,19 5,34 15,49"
         style="fill:none;stroke:#000000;stroke-width:1px;stroke-linecap:butt;stroke-linejoin:miter;stroke-opacity:1" />
      <path
         sodipodi:nodetypes="cc"
         inkscape:connector-curvature="0"
         id="path3043"
         d="m 15,19 0,10"
         style="fill:none;stroke:#000000;stroke-width:1px;stroke-linecap:butt;stroke-linejoin:miter;stroke-opacity:1" />
      <path
         sodipodi:nodetypes="cc"
         inkscape:connector-curvature="0"
         id="path3045"
         d="M 15,49 15,39"
         style="fill:none;stroke:#000000;stroke-width:1px;stroke-linecap:butt;stroke-linejoin:miter;stroke-opacity:1" />
    </g>
    <path
       style="fill:none;stroke:#000000;stroke-width:1.69473052px;stroke-linecap:butt;stroke-linejoin:miter;stroke-opacity:1"
       d="M 11.707642,21.209233 26.19235,7.7192461 C 60.16312,-15.067363 65.501986,29.657461 55.013962,58.627887 l -8.424778,3.693686 c 5.881207,-33.556008 6.12975,-55.1879557 -11.67645,-38.864008 -3.244499,3.007699 -9.361197,6.264913 -13.154479,12.36582"
       id="path3052"
       inkscape:connector-curvature="0"
       sodipodi:nodetypes="cccccc" />
    <path
       style="fill:#aa0000;stroke:#ffffff;stroke-width:0.3081328"
       d="M 48.560281,56.170781 C 50.2763,45.745358 50.851127,39.753553 50.863602,32.161818 50.876282,24.481489 50.712139,23.187769 49.34634,20.198953 47.547861,16.263275 43.636525,15.869158 38.759078,19.132154 36.919484,20.362835 29.559147,26.271971 26.19235,29.22116 c -2.925617,2.56273 -5.47378,5.857986 -4.960849,6.415312 0.242939,0.263964 0.19998,0.412783 -0.162832,0.564059 -0.271062,0.113024 -0.492116,0.370691 -0.491232,0.572611 8.88e-4,0.201916 1.596091,2.813343 3.544905,5.803166 1.948814,2.989821 3.494621,5.488932 3.435129,5.553574 C 27.423225,48.275746 4.8585029,38.917821 4.5042091,38.569355 4.3630379,38.430504 4.1371132,34.005156 4.0021666,28.735254 3.8672225,23.465353 3.692593,17.298032 3.6141037,15.030098 l -0.1426992,-4.123519 3.7237685,5.72947 c 2.0480721,3.151207 3.768403,5.789911 3.822959,5.863783 0.257285,0.348382 2.125806,-1.231585 8.751388,-7.399929 7.858672,-7.3163359 10.38386,-9.0729973 16.181436,-11.2567111 2.585681,-0.9739215 3.094369,-1.056945 6.515074,-1.0633386 3.696588,-0.00694 3.718756,-0.00244 5.951085,1.1963112 6.759131,3.6296559 10.295981,12.8895765 10.289506,26.9392195 -0.004,8.359819 -1.005087,15.393294 -3.266319,22.945313 l -1.176945,3.930733 -3.024168,1.318978 c -1.663293,0.725435 -3.104094,1.318337 -3.201782,1.31756 -0.0977,-6.43e-4 0.137602,-1.916514 0.522874,-4.257187 l 0,0 z"
       id="path3024"
       inkscape:connector-curvature="0" />
  </g>
</svg>
